<?xml version="1.0" standalone="no"?><!DOCTYPE svg PUBLIC "-//W3C//DTD SVG 1.1//EN" "http://www.w3.org/Graphics/SVG/1.1/DTD/svg11.dtd"><svg t="1740148769380" class="icon" viewBox="0 0 1053 1024" version="1.1" xmlns="http://www.w3.org/2000/svg" p-id="3961" xmlns:xlink="http://www.w3.org/1999/xlink" width="205.6640625" height="200"><path d="M269.607627 217.955289C275.83873 256.937164 226.502229 326.549738 164.699359 306.727669c-69.325177-22.22121-133.468875-11.495884-139.704142-50.481924-6.231102-38.98604 52.964368-80.650288 117.137223-90.692525 64.17702-10.046403 121.244086 13.416029 127.475187 52.402069z" fill="#E8AC89" p-id="3962"></path><path d="M248.427711 268.203963c-1.703557-12.266441 11.625004-19.097328-5.660473-29.980931-119.636328-75.360515-195.117634 10.996063-195.117633 10.996063 12.074843 39.415053 66.467866 29.243695 124.955257 56.408968 30.872279 14.344863 58.295793-6.885035 75.822849-37.4241z" fill="#F7CDAF" p-id="3963"></path><path d="M454.399792 816.886662c0.870522 56.837981-32.134327 103.425466-73.715271 104.046077s-75.997787-44.958901-76.868309-101.792718c-0.866356-56.837981 32.505027-59.53285 74.085971-60.157625 41.580944-0.616446 75.622921 1.06212 76.497609 57.904266z" fill="#E8AC89" p-id="3964"></path><path d="M444.432527 817.032443c0.4665 30.351632-9.663207 59.095506-27.09863 76.876639-10.81696 11.025219-23.537405 16.960594-36.803488 17.160522-13.257753 0.204094-26.1573-5.348085-37.303309-16.052585-17.972731-17.256321-28.981289-45.675312-29.447789-76.035274-0.71641-46.970681 21.542286-49.498942 64.272819-50.14038 41.909993-0.616446 65.659822 1.316195 66.380397 48.191078z m-66.684455-67.913182c-37.848947 0.583125-84.952914 1.291204-83.90329 70.179037 0.549803 36.003775 13.491003 68.762878 35.499789 89.892812 15.019622 14.428167 32.825746 21.896326 51.489896 21.613094 18.66415-0.274902 36.232859-8.284534 50.806807-23.158374 21.346523-21.779701 33.275585-54.917835 32.721617-90.91328-1.053789-68.883668-50.50275-68.150597-86.614819-67.613289z" fill="#6E6E96" p-id="3965"></path><path d="M641.370343 818.790147c1.920146 56.817155 37.174189 101.755231 78.738472 100.384888 41.560118-1.378673 73.698611-48.561778 71.778465-105.374768-1.928476-56.81299-36.36198-61.823696-77.917933-60.449188-41.568449 1.382838-74.514985 8.626078-72.599004 65.439068z" fill="#E8AC89" p-id="3966"></path><path d="M631.398913 819.123361c2.107579 62.152745 42.051609 111.464254 89.047281 109.910644 46.979011-1.557776 83.507598-53.401712 81.40835-115.566952-0.82887-24.382936-7.314048-41.855846-19.809573-53.422538-18.110182-16.752335-44.808955-17.327129-68.417168-16.552406-40.964498 1.366177-84.49058 8.451141-82.22889 75.631252z m82.907813-55.904982c24.332954-0.799714 42.842992 0.791383 54.122287 11.229312 8.44281 7.818034 12.862061 20.792555 13.491003 39.68579 1.732713 51.281637-26.14064 93.978849-62.144415 95.182584-36.012105 1.19124-66.713612-39.565-68.446324-90.850802-1.520289-45.154665 19.093163-53.789073 62.977449-55.246884z" fill="#6E6E96" p-id="3967"></path><path d="M1033.538251 507.443298c0-43.85513-23.312486-82.441313-58.620676-104.929094a149.571443 149.571443 0 0 0 11.945723-58.612346c0-85.506882-71.915916-154.840389-160.634148-154.840389-12.616316 0-24.878592 1.453646-36.657707 4.098532-24.986886-57.51274-83.91162-97.906609-152.645342-97.906609-55.221893 0-104.079399 26.094823-134.139469 66.172139-22.92929-22.321174-54.734568-36.157886-89.896977-36.157886-69.866649 0-126.513032 54.588787-126.513032 121.93967 0 1.357847 0.058312 2.694868 0.104129 4.04855-81.616609 64.493573-132.827438 157.322834-132.827438 260.49839 0 131.277993 39.723276 216.805701 104.945755 270.732224 27.431844 57.829293 88.285054 98.073216 159.005565 98.073216 28.577267 0 55.521786-6.605968 79.329927-18.260128 10.471251 0.749732 21.071621 1.287039 31.788618 1.645244 26.877876 16.910611 58.966386 26.765416 93.458201 26.765416 53.643292 0 101.509486-23.77482 132.910742-60.99066a398.782207 398.782207 0 0 0 45.03804-21.354854 130.111744 130.111744 0 0 0 52.631154 11.054375c69.870814 0 126.513032-54.592952 126.513032-121.931339 0-27.844196-9.692363-53.48918-25.986528-74.015164 47.128958-18.934887 80.250431-63.748007 80.250431-116.029287z" fill="#E4E4F2" p-id="3968"></path><path d="M1033.538251 507.443298c0-43.85513-23.312486-82.441313-58.620676-104.929094a149.571443 149.571443 0 0 0 11.945723-58.612346c0-20.480167-4.165175-40.010673-11.666656-57.908431a150.175393 150.175393 0 0 1-8.255377 25.774104c35.316521 22.487781-13.261918 69.116918 10.208844 106.307768 56.396473 89.372165-6.297745 143.761023-53.410042 162.691744-15.007126 14.85718-27.144447 14.644756 4.731639 74.015164 31.930233 59.466207 6.076991 82.695389-63.793824 82.695389-13.361882 0-50.069571-6.431031-66.101331-13.511829-40.235593-6.918356-64.926751 35.978784-80.591975 42.255703-31.401256 37.20751-50.115388 33.75458-103.762845 33.75458-34.487651 0-66.571996-9.85897-93.458202-26.769581-5.539683-5.47304-21.317367-12.004035-31.792783-1.641079-23.808142 11.64583-50.756825 18.255963-79.329927 18.255963-70.72051 0-131.569555-40.235593-159.005565-98.069051-48.070287-39.744102-82.262211-96.690378-96.931958-176.420162 0.71641 129.241222 40.28141 213.744297 104.908269 267.179331 27.436009 57.829293 88.285054 98.073216 159.005564 98.073215 28.573102 0 55.521786-6.605968 79.329928-18.255963 10.475416 0.745566 21.071621 1.282874 31.792782 1.641079 26.882041 16.910611 58.966386 26.765416 93.458202 26.765417 53.647457 0 101.509486-23.77482 132.910742-60.990661a397.316065 397.316065 0 0 0 45.033874-21.354854 130.145065 130.145065 0 0 0 52.63532 11.054375c69.870814 0 126.517198-54.592952 126.517197-121.931339 0-27.844196-9.696528-53.48918-25.990693-74.015164 47.112297-18.959878 80.23377-63.772998 80.23377-116.054278z" fill="#6E6E96" p-id="3969"></path><path d="M974.917575 402.510039c4.086037-1.503628 10.271322 12.316423 14.136605 10.446259a132.285965 132.285965 0 0 0-14.136605-10.446259 149.421496 149.421496 0 0 0 11.945723-58.612346c0-85.506882-71.915916-154.840389-160.625818-154.840389-12.616316 0-24.882757 1.449481-36.666037 4.098532-24.986886-57.51274-83.91162-97.906609-152.645342-97.906609-55.221893 0-104.087729 26.094823-134.139469 66.172139-22.92929-22.321174-54.730403-36.162051-89.892811-36.162051-69.866649 0-126.513032 54.588787-126.513033 121.93967 0 1.357847 0.066643 2.694868 0.10413 4.044385-26.294751 20.775894-49.407309 44.509063-68.696236 70.566399 0.074973 113.280271 37.778139 187.112167 99.655983 233.67466 26.049006 49.982103 83.832482 84.769646 150.991767 84.769647 27.136117 0 52.726953-5.710455 75.331359-15.777684 9.946438 0.633107 37.649019-202.606619 47.824542-202.302561 5.922879 3.390453 141.186945-113.788422 110.906121 24.245485-15.952621 72.703134-96.61957-12.378901-96.619569 82.753701 0 58.978881 14.278221 115.267059 56.833816 119.848753 124.859458 13.453516 126.192314-79.921382 168.981159-71.174515 14.869676-5.418893-13.620123 6.868374 0 0 15.21955 6.122808 32.142657 9.550747 49.982102 9.550747 66.359572 0 120.14448-47.170609 120.14448-105.383098 0.012496-24.041391-11.433406-61.757053-26.902867-79.504865z" fill="#FFFFFF" p-id="3970"></path><path d="M678.802772 439.530116c-27.877518 28.214897-72.419902-11.670821-134.618463-30.247502-118.016075-35.229052-70.378966-112.805441-42.501448-141.036999 27.877518-28.231558 97.011096-6.131138 143.469461 38.798607 46.46253 44.93391 61.540464 104.254336 33.65045 132.485894z" fill="#E8AC89" p-id="3971"></path><path d="M536.757802 396.599655c64.789301 24.133025 111.401777 75.543783 140.916208 41.218574-16.260844-99.71846-112.164004-127.841723-112.164004-127.841723s-32.567505 23.562396-39.090169 82.474635c3.311314 1.420325 6.739254 2.811493 10.337965 4.148514z" fill="#F7CDAF" p-id="3972"></path><path d="M1043.509681 507.443298c0-45.700303-23.624874-88.030978-63.198204-113.230288l3.794475 12.116494a158.893105 158.893105 0 0 0 12.73294-62.435976c0-90.817481-76.543425-164.703524-170.609742-164.703524a177.686375 177.686375 0 0 0-38.869416 4.344277l11.366764 5.722951c-27.411018-63.09824-90.925775-103.87114-161.804562-103.87114-56.067424 0-109.202564 26.228108-142.144936 70.162377l14.998796-1.149588c-25.828252-25.140998-60.236764-38.990205-96.890306-38.990206-75.256386 0-136.480297 59.124662-136.480297 131.811136 0 1.270378 0.041652 2.457453 0.083304 3.615372l0.024991 0.753896 3.740327-8.034623c-86.793921 68.587941-136.576096 166.348768-136.576095 268.216459 0 125.134359 36.511926 218.763333 108.52364 278.300349l-2.632391-3.382123c29.893463 63.019101 95.849012 103.733689 168.0315 103.733689 29.418633 0 57.596043-6.485178 83.745013-19.272265l-5.131496 0.995476c10.379617 0.737236 21.200742 1.299535 32.175979 1.65774l-5.019037-1.541115c29.435293 18.526699 63.606391 28.314861 98.806287 28.314862 54.726237 0 105.953728-23.516579 140.574664-64.53106l-3.911099 2.823989a408.062217 408.062217 0 0 0 46.166802-21.904657l-8.938466 0.416518a139.53337 139.53337 0 0 0 56.696365 11.90407c75.260551 0 136.488627-59.124662 136.488627-131.798639 0-29.23953-9.721519-56.929615-28.123263-80.100485l-4.086037 15.232045c52.514529-21.117438 86.464873-70.249845 86.464873-125.176011z m-98.060721 122.131268c15.606912 19.667957 23.862289 43.142885 23.862289 67.921513 0 61.79454-52.285445 112.068205-116.537438 112.068205-16.902281 0-33.242264-3.432104-48.561778-10.200515l-4.577527-2.02011-4.373434 2.424132a388.136019 388.136019 0 0 1-43.896782 20.817546l-2.311672 0.928834-1.595262 1.895155c-30.818132 36.516091-76.476782 57.450262-125.27181 57.450262-31.401256 0-61.869513-8.726042-88.105952-25.232632l-2.299177-1.44115-2.715694-0.095799c-10.716996-0.349875-21.284045-0.899678-31.409586-1.611923l-2.703199-0.191598-2.428297 1.18291c-23.379129 11.425076-48.582604 17.235495-74.910677 17.235495-64.485243 0-123.359995-36.266181-149.983795-92.408578l-0.937164-1.978458-1.695227-1.403664c-68.20891-56.383977-101.36787-142.465654-101.367869-263.155771 0-95.832352 47.049819-187.970193 129.082945-252.792815l3.9111-3.094725-0.170772-4.939898-0.029156-0.791384c-0.033321-1.032963-0.070808-1.999284-0.070808-2.932283 0-61.80287 52.281279-112.0807 116.541603-112.0807 31.388761 0 60.832384 11.837428 82.903647 33.325567l8.167909 7.955485 6.826722-9.105074c29.197878-38.948554 76.351827-62.198562 126.138167-62.198561 62.902476 0 119.219811 36.091243 143.486121 91.937913l3.273828 7.547297 8.092936-1.824347a157.147896 157.147896 0 0 1 34.441834-3.852787c83.078585 0 150.671049 65.035046 150.671048 144.977255 0 18.90573-3.756988 37.336631-11.166834 54.79288l-3.240507 7.634766 7.034981 4.481728c33.842049 21.554782 54.051479 57.679347 54.051479 96.636231 0 46.858221-29.064593 88.818197-74.027659 106.903387l-12.266441 4.931568 8.167908 10.304643z" fill="#6E6E96" p-id="3973"></path><path d="M715.697895 862.078813c1.707722 50.448602 33.013179 90.350981 69.920796 89.13475 36.895122-1.228727 65.430738-43.126224 63.731346-93.566497-1.707722-50.444437-32.288438-54.89701-69.187725-53.680778-36.907618 1.245387-66.167974 7.668088-64.464417 58.112525z" fill="#E8AC89" p-id="3974"></path><path d="M706.846897 862.36621c1.874329 55.196902 37.340796 98.977059 79.059191 97.602551 41.730891-1.387003 74.148449-47.416355 72.282451-102.613257-2.186717-64.647685-51.714816-63.014936-78.330285-62.136084-36.37864 1.216231-75.023136 7.501481-73.011357 67.14679z m73.602812-49.636393c39.602486-1.3037 58.695649 5.119 60.045166 45.208812 1.53695 45.537861-23.216687 83.449286-55.188572 84.50724-31.963555 1.057955-59.232957-35.129088-60.769907-80.666949-1.349517-40.073151 16.960594-47.745404 55.913313-49.049103z" fill="#6E6E96" p-id="3975"></path><path d="M403.309752 876.090462c1.711887 50.448602 33.013179 90.346816 69.920797 89.130585 36.899287-1.228727 65.426573-43.122059 63.735511-93.558166-1.707722-50.444437-32.284273-54.901175-69.18356-53.684943-36.907618 1.241222-66.176304 7.672253-64.472748 58.112524z" fill="#E8AC89" p-id="3976"></path><path d="M394.467085 876.38619c1.874329 55.188572 37.336631 98.972894 79.059191 97.594221 41.72256-1.387003 74.144284-47.416355 72.282451-102.604927-2.186717-64.656015-51.718981-63.014936-78.330285-62.144414-36.382806 1.216231-75.027301 7.505646-73.011357 67.15512z m73.602812-49.640559c39.602486-1.3037 58.687319 5.123166 60.045166 45.208812 1.541115 45.542026-23.220852 83.449286-55.188572 84.515571-31.963555 1.053789-59.224627-35.141583-60.774072-80.675279-1.349517-40.077316 16.956428-47.749569 55.917478-49.049104zM671.667827 432.632586c-13.245257 13.403534-33.471348 5.202304-68.100615-10.458755-16.677362-7.538967-35.574762-16.085907-56.513097-22.33367-39.031857-11.649995-61.719567-28.689727-67.425857-50.627705-6.76841-26.003189 11.491718-56.150727 29.185383-74.073476 6.147799-6.222772 15.381992-9.454948 27.436009-9.588233 30.580717-0.34571 71.54105 19.163971 101.938499 48.553447 27.215255 26.319742 44.325795 59.607823 44.642348 86.8564 0.149946 13.174449-3.711171 24.12886-11.16267 31.671992z m-19.547167-132.64417c-34.450164-33.317237-80.025512-54.580456-116.095929-54.163939-17.289642 0.195763-31.634506 5.568839-41.468485 15.531938-7.71807 7.809704-45.625329 49.003287-34.23774 92.775113 7.568123 29.081253 34.812535 50.810973 80.983502 64.597703 19.630471 5.860402 37.886434 14.115779 53.984836 21.396505 35.924636 16.240018 66.951027 30.276659 90.642543 6.30191 11.225147-11.366763 17.052227-27.165273 16.831473-45.691972-0.383196-32.784094-19.313918-70.445609-50.6402-100.747258zM259.761153 219.500569c2.636556 16.489929-8.08044 44.908919-30.576551 63.939605-13.145293 11.116853-34.47099 22.554424-61.411344 13.911686-25.249292-8.092935-49.423969-11.883245-70.753831-15.227881-38.952719-6.110312-59.407894-10.10055-62.173571-27.419348-1.374508-8.596922 1.524454-17.851941 8.613582-27.506818 17.976896-24.47457 58.258306-45.333767 100.230777-51.902248 37.594872-5.881227 74.785721 0.416518 97.061078 16.435781 10.771143 7.743061 17.34379 17.347955 19.00986 27.769223zM140.574664 155.802545C92.995867 163.249878 48.545117 186.716475 27.33188 215.58947c-10.167193 13.845042-14.38235 28.431486-12.183138 42.193225 5.160652 32.284273 39.265107 37.632358 78.746803 43.821809 20.609287 3.228011 43.96759 6.8892 67.729915 14.51147 27.865022 8.938466 56.45895 2.657382 80.512837-17.689499 25.736618-21.767206 41.430998-56.259022 37.31164-82.0123-2.507435-15.702711-11.837428-29.760177-26.97784-40.647945-26.790407-19.268101-68.621262-26.732095-111.897433-19.963685z" fill="#6E6E96" p-id="3977"></path><path d="M461.205688 213.773454c126.371416 56.529758 141.028668 215.706095 101.926003 380.134717-47.999479 201.740262-224.690378 220.341935-355.735121 175.399694-226.714653-77.73883-158.872279-214.943868-101.917672-380.113891 76.031109-220.500212 229.351209-231.950278 355.72679-175.42052z" fill="#E8AC89" p-id="3978"></path><path d="M426.064105 209.445836c89.034786 38.182161 108.432007 140.066513 89.7387 254.158993-3.036413 18.555856-96.894471 5.064853-101.813543 24.045557-4.694152 18.106017 79.204972 16.094237 72.253294 81.533305-56.979597 120.631805-183.709219 131.652859-279.587387 100.638964-148.167778-47.916176-141.332726-129.811851-107.190785-230.125932 6.555986-19.255605 57.591878-28.135759 65.255801-48.640916 2.561583-6.855878-38.344603-24.820279-35.791351-31.801113 66.651134-182.322215 193.618171-194.19713 297.135271-149.808858z" fill="#F7CDAF" p-id="3979"></path><path d="M227.914223 584.045036a22.92929 22.687709 0 1 0 45.85858 0 22.92929 22.687709 0 1 0-45.85858 0Z" fill="#6E6E96" p-id="3980"></path><path d="M208.046338 373.133058a39.456705 27.910839 90 1 0 55.821678 0 39.456705 27.910839 90 1 0-55.821678 0Z" fill="#6E6E96" p-id="3981"></path><path d="M335.646481 377.077479a39.456705 27.910839 90 1 0 55.821678 0 39.456705 27.910839 90 1 0-55.821678 0Z" fill="#6E6E96" p-id="3982"></path><path d="M457.098825 222.757736c150.154567 67.180111 117.378803 280.357945 96.319677 368.888745-18.026878 75.810354-55.596759 129.720217-111.639191 160.238456-62.569262 34.058638-146.809931 37.015912-231.121409 8.101266-72.544857-24.874426-117.624549-57.04624-137.800657-98.343953-30.788975-63.027432-2.657382-142.557287 29.914289-234.636816l12.145651-34.625101c32.280108-93.624809 80.637792-154.798737 143.719371-181.83489 72.236634-30.963913 147.797078-10.446259 198.462269 12.212293zM96.044776 386.007614l-12.091504 34.479321c-32.621652 92.229475-63.431454 179.33995-29.043767 249.739742 22.600241 46.254271 71.411929 81.720738 149.225733 108.398685 89.630406 30.738993 179.752302 27.290228 247.257297-9.459113 61.194754-33.321402 102.055123-91.529726 121.439849-172.996388 46.904038-197.179395 7.71807-339.832482-107.519833-391.384856-54.334711-24.303797-135.668088-46.175133-214.602324-12.349744-68.454655 29.339494-120.494354 94.466174-154.665451 193.572353z" fill="#6E6E96" p-id="3983"></path><path d="M460.789171 955.053854s41.147766-4.186001 31.880251-80.625297c-5.314764-43.792652-35.545605-47.087306-35.545606-47.087305s85.386092-23.778985 69.312681 68.59627c-16.065081 92.362761-45.587843 59.116332-65.647326 59.116332zM768.208259 807.860727s42.488953 5.260616 42.488952 57.812632-25.390908 76.78084-25.390908 76.78084 62.565097-4.948228 62.565097-75.031466c0.004165-70.070743-39.019362-59.562006-79.663141-59.562006z" fill="#6E6E96" p-id="3984"></path><path d="M454.22902 554.147408c-0.891347 11.466727-16.485764 19.609645-34.833361 18.185155-18.347597-1.428655-32.500862-20.20943-31.609515-31.671992s16.485764-11.279295 34.833361-9.854805c18.347597 1.42449 32.496697 11.870749 31.609515 23.341642z" fill="#FFFFFF" p-id="3985"></path><path d="M144.490919 495.256684a33.321402 20.825876 4.439 1 0 3.223749-41.526809 33.321402 20.825876 4.439 1 0-3.223749 41.526809Z" fill="#FFFFFF" p-id="3986"></path></svg>